<svg fill="none" xmlns="http://www.w3.org/2000/svg">
<path d="M0.849565 12.3436C1.61057 6.10972 6.60705 1.28804 12.7915 0.687086C22.3105 -0.237903 30.2163 -0.228943 40.0774 0.713966C46.3236 1.31123 51.3736 6.18045 52.1326 12.4769C53.3134 22.2729 53.2886 30.3459 52.0581 40.4313C51.3104 46.5603 46.5245 51.3993 40.4591 52.1302C30.7489 53.3003 22.7399 53.2898 12.6784 52.0987C6.54744 51.3729 1.70203 46.4899 0.957345 40.2947C-0.282116 29.9835 -0.318043 21.9083 0.849565 12.3436Z" fill="#202427"/>
<path fill-rule="evenodd" clip-rule="evenodd" d="M13 25.4087H20.947V41.4818C20.947 41.9731 20.5418 42.3749 20.0465 42.3749H13.9004C13.4051 42.3749 13 41.9731 13 41.4818V25.4087Z" fill="#FD0177"/>
<path fill-rule="evenodd" clip-rule="evenodd" d="M40 25.409C40 18.0038 33.9561 12 26.5 12C19.0445 12 13 18.0038 13 25.409C13 32.8142 19.0445 38.8173 26.5 38.8173C33.9561 38.8173 40 32.8148 40 25.409ZM32.0532 25.4086C32.0532 22.3622 29.5666 19.8923 26.4996 19.8923C23.4325 19.8923 20.9465 22.3622 20.9465 25.4086C20.9465 28.4549 23.4325 30.9248 26.4996 30.9248C29.5666 30.9248 32.0532 28.4549 32.0532 25.4086Z" fill="#05A4EB"/>
<path fill-rule="evenodd" clip-rule="evenodd" d="M20.947 37.6338C16.2613 35.5304 13 30.848 13 25.4087H20.947V37.6338Z" fill="#9901BB"/>
<path d="M63 20V34H65.9187V29.5856H68.5281C71.466 29.5856 73.5052 27.6646 73.5052 24.7928C73.5052 21.9113 71.5337 20 68.673 20H63ZM65.9187 22.3188H67.8999C69.5718 22.3188 70.5383 23.2114 70.5383 24.8025C70.5383 26.4033 69.5621 27.2959 67.8902 27.2959H65.9187V22.3188Z" fill="white"/>
<path d="M77.9162 34V20H75.4228V34H77.9162Z" fill="white"/>
<path d="M79.6888 34H82.0855L85.6034 28.6639H85.671L89.1406 34H91.6727L87.0337 27.0534V26.9951L91.7596 20H89.3145L85.8353 25.4137H85.758L82.3175 20H79.7371L84.318 26.9175V26.9854L79.6888 34Z" fill="white"/>
<path d="M98.9346 34V21.5717H103.332V20H92.7977V21.5717H97.195V34H98.9346Z" fill="white"/>
<path d="M113.608 34H115L109.791 20H108.477L103.258 34H104.659L106.205 29.7117H112.062L113.608 34ZM109.105 21.6396H109.163L111.666 28.5669H106.602L109.105 21.6396Z" fill="white"/>
</svg>
